<mxfile host="app.diagrams.net" modified="2023-08-13T15:30:24.741Z" agent="Mozilla/5.0 (Macintosh; Intel Mac OS X 10_15_7) AppleWebKit/537.36 (KHTML, like Gecko) Chrome/115.0.0.0 Safari/537.36" etag="kaCvaSjbIjGntHu0wnI2" version="21.6.8" type="device">
  <diagram name="Page-1" id="XI_Lzige50IIv7R2YR4Z">
    <mxGraphModel dx="1242" dy="799" grid="1" gridSize="10" guides="1" tooltips="1" connect="1" arrows="1" fold="1" page="1" pageScale="1" pageWidth="2339" pageHeight="3300" math="0" shadow="0">
      <root>
        <mxCell id="0" />
        <mxCell id="1" parent="0" />
        <mxCell id="5Wx2BNiv1AUS7xlek8FX-3" value="Preprocessing job" style="swimlane;" parent="1" vertex="1">
          <mxGeometry x="39" y="120" width="241" height="190" as="geometry" />
        </mxCell>
        <mxCell id="5Wx2BNiv1AUS7xlek8FX-4" value="get all information data" style="rounded=0;whiteSpace=wrap;html=1;" parent="5Wx2BNiv1AUS7xlek8FX-3" vertex="1">
          <mxGeometry x="40.5" y="50" width="160" height="40" as="geometry" />
        </mxCell>
        <mxCell id="5Wx2BNiv1AUS7xlek8FX-16" value="preprocess data" style="rounded=0;whiteSpace=wrap;html=1;" parent="5Wx2BNiv1AUS7xlek8FX-3" vertex="1">
          <mxGeometry x="40.5" y="100" width="160" height="40" as="geometry" />
        </mxCell>
        <mxCell id="5Wx2BNiv1AUS7xlek8FX-66" value="docker volume" style="swimlane;childLayout=stackLayout;resizeParent=1;resizeParentMax=0;startSize=20;html=1;" parent="1" vertex="1">
          <mxGeometry x="120" y="530" width="800.0000000000014" height="230" as="geometry" />
        </mxCell>
        <mxCell id="5Wx2BNiv1AUS7xlek8FX-67" value="inputs" style="swimlane;startSize=20;html=1;" parent="5Wx2BNiv1AUS7xlek8FX-66" vertex="1">
          <mxGeometry y="20" width="150" height="210" as="geometry" />
        </mxCell>
        <mxCell id="5Wx2BNiv1AUS7xlek8FX-71" value="&lt;ul style=&quot;font-size: medium; text-align: start;&quot; class=&quot;ul1&quot;&gt;&lt;ul style=&quot;list-style-type: disc;&quot; class=&quot;ul1&quot;&gt;&lt;li style=&quot;margin: 0px; font-variant-numeric: normal; font-variant-east-asian: normal; font-variant-alternates: normal; font-kerning: auto; font-optical-sizing: auto; font-feature-settings: normal; font-variation-settings: normal; font-stretch: normal; font-size: 13px; line-height: normal; font-family: &amp;quot;Helvetica Neue&amp;quot;;&quot; class=&quot;li1&quot;&gt;movies.csv&lt;/li&gt;&lt;li style=&quot;margin: 0px; font-variant-numeric: normal; font-variant-east-asian: normal; font-variant-alternates: normal; font-kerning: auto; font-optical-sizing: auto; font-feature-settings: normal; font-variation-settings: normal; font-stretch: normal; font-size: 13px; line-height: normal; font-family: &amp;quot;Helvetica Neue&amp;quot;;&quot; class=&quot;li1&quot;&gt;&lt;span style=&quot;font-variant-numeric: normal; font-variant-east-asian: normal; font-variant-alternates: normal; font-kerning: auto; font-optical-sizing: auto; font-feature-settings: normal; font-variation-settings: normal; font-stretch: normal; font-size: 9px; line-height: normal; font-family: Menlo;&quot; class=&quot;s1&quot;&gt;&lt;/span&gt;genome-score.csv&lt;/li&gt;&lt;li style=&quot;margin: 0px; font-variant-numeric: normal; font-variant-east-asian: normal; font-variant-alternates: normal; font-kerning: auto; font-optical-sizing: auto; font-feature-settings: normal; font-variation-settings: normal; font-stretch: normal; font-size: 13px; line-height: normal; font-family: &amp;quot;Helvetica Neue&amp;quot;;&quot; class=&quot;li1&quot;&gt;&lt;span style=&quot;font-variant-numeric: normal; font-variant-east-asian: normal; font-variant-alternates: normal; font-kerning: auto; font-optical-sizing: auto; font-feature-settings: normal; font-variation-settings: normal; font-stretch: normal; font-size: 9px; line-height: normal; font-family: Menlo;&quot; class=&quot;s1&quot;&gt;&lt;/span&gt;genome-tags.csv&lt;/li&gt;&lt;li style=&quot;margin: 0px; font-variant-numeric: normal; font-variant-east-asian: normal; font-variant-alternates: normal; font-kerning: auto; font-optical-sizing: auto; font-feature-settings: normal; font-variation-settings: normal; font-stretch: normal; font-size: 13px; line-height: normal; font-family: &amp;quot;Helvetica Neue&amp;quot;;&quot; class=&quot;li1&quot;&gt;&lt;span style=&quot;font-variant-numeric: normal; font-variant-east-asian: normal; font-variant-alternates: normal; font-kerning: auto; font-optical-sizing: auto; font-feature-settings: normal; font-variation-settings: normal; font-stretch: normal; font-size: 9px; line-height: normal; font-family: Menlo;&quot; class=&quot;s1&quot;&gt;&lt;/span&gt;links.csv&lt;/li&gt;&lt;li style=&quot;margin: 0px; font-variant-numeric: normal; font-variant-east-asian: normal; font-variant-alternates: normal; font-kerning: auto; font-optical-sizing: auto; font-feature-settings: normal; font-variation-settings: normal; font-stretch: normal; font-size: 13px; line-height: normal; font-family: &amp;quot;Helvetica Neue&amp;quot;;&quot; class=&quot;li1&quot;&gt;&lt;span style=&quot;font-variant-numeric: normal; font-variant-east-asian: normal; font-variant-alternates: normal; font-kerning: auto; font-optical-sizing: auto; font-feature-settings: normal; font-variation-settings: normal; font-stretch: normal; font-size: 9px; line-height: normal; font-family: Menlo;&quot; class=&quot;s1&quot;&gt;&lt;/span&gt;scorings.csv&lt;/li&gt;&lt;li style=&quot;margin: 0px; font-variant-numeric: normal; font-variant-east-asian: normal; font-variant-alternates: normal; font-kerning: auto; font-optical-sizing: auto; font-feature-settings: normal; font-variation-settings: normal; font-stretch: normal; font-size: 13px; line-height: normal; font-family: &amp;quot;Helvetica Neue&amp;quot;;&quot; class=&quot;li1&quot;&gt;&lt;span style=&quot;font-variant-numeric: normal; font-variant-east-asian: normal; font-variant-alternates: normal; font-kerning: auto; font-optical-sizing: auto; font-feature-settings: normal; font-variation-settings: normal; font-stretch: normal; font-size: 9px; line-height: normal; font-family: Menlo;&quot; class=&quot;s1&quot;&gt;&lt;/span&gt;tags.csv&lt;/li&gt;&lt;li style=&quot;margin: 0px; font-variant-numeric: normal; font-variant-east-asian: normal; font-variant-alternates: normal; font-kerning: auto; font-optical-sizing: auto; font-feature-settings: normal; font-variation-settings: normal; font-stretch: normal; font-size: 13px; line-height: normal; font-family: &amp;quot;Helvetica Neue&amp;quot;;&quot; class=&quot;li1&quot;&gt;&lt;span style=&quot;font-variant-numeric: normal; font-variant-east-asian: normal; font-variant-alternates: normal; font-kerning: auto; font-optical-sizing: auto; font-feature-settings: normal; font-variation-settings: normal; font-stretch: normal; font-size: 9px; line-height: normal; font-family: Menlo;&quot; class=&quot;s1&quot;&gt;&lt;/span&gt;readme.txt&lt;/li&gt;&lt;/ul&gt;&lt;/ul&gt;" style="text;html=1;align=center;verticalAlign=middle;resizable=0;points=[];autosize=1;strokeColor=none;fillColor=none;" parent="5Wx2BNiv1AUS7xlek8FX-67" vertex="1">
          <mxGeometry x="-60.000000000000455" y="30" width="210" height="160" as="geometry" />
        </mxCell>
        <mxCell id="5Wx2BNiv1AUS7xlek8FX-68" value="data" style="swimlane;startSize=20;html=1;" parent="5Wx2BNiv1AUS7xlek8FX-66" vertex="1">
          <mxGeometry x="150" y="20" width="120.00000000000045" height="210" as="geometry" />
        </mxCell>
        <mxCell id="5Wx2BNiv1AUS7xlek8FX-69" value="outputs" style="swimlane;startSize=20;html=1;" parent="5Wx2BNiv1AUS7xlek8FX-66" vertex="1">
          <mxGeometry x="270.00000000000045" y="20" width="210" height="210" as="geometry" />
        </mxCell>
        <mxCell id="5Wx2BNiv1AUS7xlek8FX-73" value="&lt;ul style=&quot;text-align: start;&quot; class=&quot;ul1&quot;&gt;&lt;ul style=&quot;list-style-type: disc;&quot; class=&quot;ul1&quot;&gt;&lt;li style=&quot;font-size: 13px; margin: 0px; font-variant-numeric: normal; font-variant-east-asian: normal; font-variant-alternates: normal; font-kerning: auto; font-optical-sizing: auto; font-feature-settings: normal; font-variation-settings: normal; font-stretch: normal; line-height: normal; font-family: &amp;quot;Helvetica Neue&amp;quot;;&quot; class=&quot;li1&quot;&gt;prediction_history.json&lt;/li&gt;&lt;li style=&quot;font-size: 13px; margin: 0px; font-variant-numeric: normal; font-variant-east-asian: normal; font-variant-alternates: normal; font-kerning: auto; font-optical-sizing: auto; font-feature-settings: normal; font-variation-settings: normal; font-stretch: normal; line-height: normal; font-family: &amp;quot;Helvetica Neue&amp;quot;;&quot; class=&quot;li1&quot;&gt;&lt;span style=&quot;font-variant-numeric: normal; font-variant-east-asian: normal; font-variant-alternates: normal; font-kerning: auto; font-optical-sizing: auto; font-feature-settings: normal; font-variation-settings: normal; font-stretch: normal; font-size: 9px; line-height: normal; font-family: Menlo;&quot; class=&quot;s1&quot;&gt;&lt;/span&gt;rapport.txt&lt;/li&gt;&lt;li style=&quot;font-size: 13px; margin: 0px; font-variant-numeric: normal; font-variant-east-asian: normal; font-variant-alternates: normal; font-kerning: auto; font-optical-sizing: auto; font-feature-settings: normal; font-variation-settings: normal; font-stretch: normal; line-height: normal; font-family: &amp;quot;Helvetica Neue&amp;quot;;&quot; class=&quot;li1&quot;&gt;next_new_user_id&lt;/li&gt;&lt;li style=&quot;margin: 0px; font-variant-numeric: normal; font-variant-east-asian: normal; font-variant-alternates: normal; font-kerning: auto; font-optical-sizing: auto; font-feature-settings: normal; font-variation-settings: normal; font-stretch: normal; line-height: normal;&quot; class=&quot;li1&quot;&gt;&lt;font face=&quot;Helvetica Neue&quot;&gt;mapping_username_user_id.json&lt;/font&gt;&lt;br&gt;&lt;/li&gt;&lt;li style=&quot;margin: 0px; font-variant-numeric: normal; font-variant-east-asian: normal; font-variant-alternates: normal; font-kerning: auto; font-optical-sizing: auto; font-feature-settings: normal; font-variation-settings: normal; font-stretch: normal; line-height: normal;&quot; class=&quot;li1&quot;&gt;&lt;font face=&quot;Helvetica Neue&quot;&gt;config.yaml&lt;/font&gt;&lt;/li&gt;&lt;/ul&gt;&lt;/ul&gt;" style="text;html=1;align=center;verticalAlign=middle;resizable=0;points=[];autosize=1;strokeColor=none;fillColor=none;" parent="5Wx2BNiv1AUS7xlek8FX-69" vertex="1">
          <mxGeometry x="-74.99999999999955" y="25" width="280" height="110" as="geometry" />
        </mxCell>
        <mxCell id="5Wx2BNiv1AUS7xlek8FX-72" value="&lt;ul style=&quot;font-size: medium; text-align: start;&quot; class=&quot;ul1&quot;&gt;&lt;ul style=&quot;list-style-type: disc;&quot; class=&quot;ul1&quot;&gt;&lt;li style=&quot;margin: 0px; font-variant-numeric: normal; font-variant-east-asian: normal; font-variant-alternates: normal; font-kerning: auto; font-optical-sizing: auto; font-feature-settings: normal; font-variation-settings: normal; font-stretch: normal; font-size: 13px; line-height: normal; font-family: &amp;quot;Helvetica Neue&amp;quot;;&quot; class=&quot;li1&quot;&gt;data_api.csv&lt;/li&gt;&lt;li style=&quot;margin: 0px; font-variant-numeric: normal; font-variant-east-asian: normal; font-variant-alternates: normal; font-kerning: auto; font-optical-sizing: auto; font-feature-settings: normal; font-variation-settings: normal; font-stretch: normal; font-size: 13px; line-height: normal; font-family: &amp;quot;Helvetica Neue&amp;quot;;&quot; class=&quot;li1&quot;&gt;&lt;span style=&quot;font-variant-numeric: normal; font-variant-east-asian: normal; font-variant-alternates: normal; font-kerning: auto; font-optical-sizing: auto; font-feature-settings: normal; font-variation-settings: normal; font-stretch: normal; font-size: 9px; line-height: normal; font-family: Menlo;&quot; class=&quot;s1&quot;&gt;&lt;/span&gt;final_***.csv&lt;/li&gt;&lt;li style=&quot;margin: 0px; font-variant-numeric: normal; font-variant-east-asian: normal; font-variant-alternates: normal; font-kerning: auto; font-optical-sizing: auto; font-feature-settings: normal; font-variation-settings: normal; font-stretch: normal; font-size: 13px; line-height: normal; font-family: &amp;quot;Helvetica Neue&amp;quot;;&quot; class=&quot;li1&quot;&gt;&lt;span style=&quot;font-variant-numeric: normal; font-variant-east-asian: normal; font-variant-alternates: normal; font-kerning: auto; font-optical-sizing: auto; font-feature-settings: normal; font-variation-settings: normal; font-stretch: normal; font-size: 9px; line-height: normal; font-family: Menlo;&quot; class=&quot;s1&quot;&gt;&lt;/span&gt;merged_***.csv&lt;/li&gt;&lt;/ul&gt;&lt;/ul&gt;" style="text;html=1;align=center;verticalAlign=middle;resizable=0;points=[];autosize=1;strokeColor=none;fillColor=none;" parent="5Wx2BNiv1AUS7xlek8FX-69" vertex="1">
          <mxGeometry x="-190" y="30" width="190" height="90" as="geometry" />
        </mxCell>
        <mxCell id="5Wx2BNiv1AUS7xlek8FX-74" value="&lt;span style=&quot;font-family: &amp;quot;Helvetica Neue&amp;quot;; font-size: 13px; text-align: start; background-color: initial;&quot;&gt;model_folder&lt;/span&gt;" style="swimlane;startSize=20;html=1;fontStyle=1" parent="5Wx2BNiv1AUS7xlek8FX-66" vertex="1">
          <mxGeometry x="480.00000000000045" y="20" width="160.00000000000045" height="210" as="geometry" />
        </mxCell>
        <mxCell id="5Wx2BNiv1AUS7xlek8FX-77" value="&lt;ul style=&quot;border-color: var(--border-color); font-size: medium; text-align: start;&quot; class=&quot;ul1&quot;&gt;&lt;li style=&quot;border-color: var(--border-color); margin: 0px; font-variant-numeric: normal; font-variant-east-asian: normal; font-variant-alternates: normal; font-kerning: auto; font-optical-sizing: auto; font-feature-settings: normal; font-variation-settings: normal; font-stretch: normal; font-size: 13px; line-height: normal; font-family: &amp;quot;Helvetica Neue&amp;quot;;&quot; class=&quot;li1&quot;&gt;user_model.joblib&lt;/li&gt;&lt;li style=&quot;border-color: var(--border-color); margin: 0px; font-variant-numeric: normal; font-variant-east-asian: normal; font-variant-alternates: normal; font-kerning: auto; font-optical-sizing: auto; font-feature-settings: normal; font-variation-settings: normal; font-stretch: normal; font-size: 13px; line-height: normal; font-family: &amp;quot;Helvetica Neue&amp;quot;;&quot; class=&quot;li1&quot;&gt;movie_model.joblib&lt;/li&gt;&lt;/ul&gt;" style="text;html=1;align=center;verticalAlign=middle;resizable=0;points=[];autosize=1;strokeColor=none;fillColor=none;" parent="5Wx2BNiv1AUS7xlek8FX-74" vertex="1">
          <mxGeometry x="-20.000000000000455" y="30" width="180" height="80" as="geometry" />
        </mxCell>
        <mxCell id="5Wx2BNiv1AUS7xlek8FX-103" value="&lt;span style=&quot;font-family: &amp;quot;Helvetica Neue&amp;quot;; font-size: 13px; text-align: start; background-color: initial;&quot;&gt;unittest&lt;/span&gt;" style="swimlane;startSize=20;html=1;fontStyle=1" parent="5Wx2BNiv1AUS7xlek8FX-66" vertex="1">
          <mxGeometry x="640.0000000000009" y="20" width="160.00000000000045" height="210" as="geometry" />
        </mxCell>
        <mxCell id="5Wx2BNiv1AUS7xlek8FX-104" value="&lt;ul style=&quot;border-color: var(--border-color); font-size: medium; text-align: start;&quot; class=&quot;ul1&quot;&gt;&lt;li style=&quot;border-color: var(--border-color); margin: 0px; font-variant-numeric: normal; font-variant-east-asian: normal; font-variant-alternates: normal; font-kerning: auto; font-optical-sizing: auto; font-feature-settings: normal; font-variation-settings: normal; font-stretch: normal; font-size: 13px; line-height: normal; font-family: &amp;quot;Helvetica Neue&amp;quot;;&quot; class=&quot;li1&quot;&gt;kpi_movie_model&lt;/li&gt;&lt;li style=&quot;border-color: var(--border-color); margin: 0px; font-variant-numeric: normal; font-variant-east-asian: normal; font-variant-alternates: normal; font-kerning: auto; font-optical-sizing: auto; font-feature-settings: normal; font-variation-settings: normal; font-stretch: normal; font-size: 13px; line-height: normal; font-family: &amp;quot;Helvetica Neue&amp;quot;;&quot; class=&quot;li1&quot;&gt;kpi_user_model&lt;/li&gt;&lt;/ul&gt;" style="text;html=1;align=center;verticalAlign=middle;resizable=0;points=[];autosize=1;strokeColor=none;fillColor=none;" parent="5Wx2BNiv1AUS7xlek8FX-103" vertex="1">
          <mxGeometry x="-10.000000000000455" y="30" width="160" height="80" as="geometry" />
        </mxCell>
        <mxCell id="5Wx2BNiv1AUS7xlek8FX-78" value="model job" style="swimlane;" parent="1" vertex="1">
          <mxGeometry x="550" y="120" width="241" height="190" as="geometry" />
        </mxCell>
        <mxCell id="5Wx2BNiv1AUS7xlek8FX-79" value="fit an user model" style="rounded=0;whiteSpace=wrap;html=1;align=center;" parent="5Wx2BNiv1AUS7xlek8FX-78" vertex="1">
          <mxGeometry x="40.5" y="50" width="160" height="40" as="geometry" />
        </mxCell>
        <mxCell id="5Wx2BNiv1AUS7xlek8FX-80" value="fit a movie model" style="rounded=0;whiteSpace=wrap;html=1;align=center;" parent="5Wx2BNiv1AUS7xlek8FX-78" vertex="1">
          <mxGeometry x="40.5" y="100" width="160" height="40" as="geometry" />
        </mxCell>
        <mxCell id="5Wx2BNiv1AUS7xlek8FX-81" value="" style="shape=flexArrow;endArrow=classic;startArrow=classic;html=1;rounded=0;entryX=0.5;entryY=1;entryDx=0;entryDy=0;exitX=0.5;exitY=0;exitDx=0;exitDy=0;" parent="1" source="5Wx2BNiv1AUS7xlek8FX-66" target="5Wx2BNiv1AUS7xlek8FX-3" edge="1">
          <mxGeometry width="100" height="100" relative="1" as="geometry">
            <mxPoint x="440" y="550" as="sourcePoint" />
            <mxPoint x="540" y="450" as="targetPoint" />
          </mxGeometry>
        </mxCell>
        <mxCell id="5Wx2BNiv1AUS7xlek8FX-82" value="" style="shape=flexArrow;endArrow=classic;startArrow=classic;html=1;rounded=0;entryX=0.5;entryY=1;entryDx=0;entryDy=0;exitX=0.5;exitY=0;exitDx=0;exitDy=0;" parent="1" source="5Wx2BNiv1AUS7xlek8FX-66" target="5Wx2BNiv1AUS7xlek8FX-78" edge="1">
          <mxGeometry width="100" height="100" relative="1" as="geometry">
            <mxPoint x="440" y="550" as="sourcePoint" />
            <mxPoint x="540" y="450" as="targetPoint" />
          </mxGeometry>
        </mxCell>
        <mxCell id="5Wx2BNiv1AUS7xlek8FX-83" value="API job" style="swimlane;" parent="1" vertex="1">
          <mxGeometry x="270" y="940" width="241" height="310" as="geometry" />
        </mxCell>
        <mxCell id="5Wx2BNiv1AUS7xlek8FX-84" value="get movie based on user model" style="rounded=0;whiteSpace=wrap;html=1;" parent="5Wx2BNiv1AUS7xlek8FX-83" vertex="1">
          <mxGeometry x="20" y="40" width="190" height="40" as="geometry" />
        </mxCell>
        <mxCell id="5Wx2BNiv1AUS7xlek8FX-85" value="get movie based on movie model" style="rounded=0;whiteSpace=wrap;html=1;" parent="5Wx2BNiv1AUS7xlek8FX-83" vertex="1">
          <mxGeometry x="20" y="90" width="190" height="40" as="geometry" />
        </mxCell>
        <mxCell id="5Wx2BNiv1AUS7xlek8FX-87" value="get a random movie" style="rounded=0;whiteSpace=wrap;html=1;" parent="5Wx2BNiv1AUS7xlek8FX-83" vertex="1">
          <mxGeometry x="20" y="140" width="190" height="40" as="geometry" />
        </mxCell>
        <mxCell id="5Wx2BNiv1AUS7xlek8FX-88" value="add user" style="rounded=0;whiteSpace=wrap;html=1;" parent="5Wx2BNiv1AUS7xlek8FX-83" vertex="1">
          <mxGeometry x="20" y="190" width="190" height="40" as="geometry" />
        </mxCell>
        <mxCell id="5Wx2BNiv1AUS7xlek8FX-89" value="add rating" style="rounded=0;whiteSpace=wrap;html=1;" parent="5Wx2BNiv1AUS7xlek8FX-83" vertex="1">
          <mxGeometry x="20" y="240" width="190" height="40" as="geometry" />
        </mxCell>
        <mxCell id="5Wx2BNiv1AUS7xlek8FX-86" value="" style="shape=flexArrow;endArrow=classic;startArrow=classic;html=1;rounded=0;exitX=0.5;exitY=0;exitDx=0;exitDy=0;entryX=0.5;entryY=1;entryDx=0;entryDy=0;" parent="1" source="5Wx2BNiv1AUS7xlek8FX-83" target="5Wx2BNiv1AUS7xlek8FX-69" edge="1">
          <mxGeometry width="100" height="100" relative="1" as="geometry">
            <mxPoint x="440" y="1050" as="sourcePoint" />
            <mxPoint x="540" y="950" as="targetPoint" />
          </mxGeometry>
        </mxCell>
        <mxCell id="5Wx2BNiv1AUS7xlek8FX-94" value="Streamlit job" style="swimlane;" parent="1" vertex="1">
          <mxGeometry x="611" y="990" width="241" height="210" as="geometry" />
        </mxCell>
        <mxCell id="5Wx2BNiv1AUS7xlek8FX-95" value="launch an interactive user interface based on Streamlit" style="rounded=0;whiteSpace=wrap;html=1;" parent="5Wx2BNiv1AUS7xlek8FX-94" vertex="1">
          <mxGeometry x="25.5" y="75" width="190" height="60" as="geometry" />
        </mxCell>
        <mxCell id="5Wx2BNiv1AUS7xlek8FX-105" value="" style="shape=flexArrow;endArrow=classic;startArrow=classic;html=1;rounded=0;exitX=0.5;exitY=0;exitDx=0;exitDy=0;entryX=0.5;entryY=1;entryDx=0;entryDy=0;" parent="1" source="5Wx2BNiv1AUS7xlek8FX-94" target="5Wx2BNiv1AUS7xlek8FX-69" edge="1">
          <mxGeometry width="100" height="100" relative="1" as="geometry">
            <mxPoint x="621" y="960" as="sourcePoint" />
            <mxPoint x="620" y="780" as="targetPoint" />
          </mxGeometry>
        </mxCell>
        <mxCell id="5Wx2BNiv1AUS7xlek8FX-106" value="" style="shape=flexArrow;endArrow=classic;startArrow=classic;html=1;rounded=0;exitX=0;exitY=0.5;exitDx=0;exitDy=0;entryX=1;entryY=0.5;entryDx=0;entryDy=0;" parent="1" source="5Wx2BNiv1AUS7xlek8FX-94" target="5Wx2BNiv1AUS7xlek8FX-83" edge="1">
          <mxGeometry width="100" height="100" relative="1" as="geometry">
            <mxPoint x="767" y="1310" as="sourcePoint" />
            <mxPoint x="530" y="1090" as="targetPoint" />
          </mxGeometry>
        </mxCell>
      </root>
    </mxGraphModel>
  </diagram>
</mxfile>
